<svg width="706" height="197" viewBox="0 0 706 197" fill="none" xmlns="http://www.w3.org/2000/svg">
<path fill-rule="evenodd" clip-rule="evenodd" d="M353 14.5282C360.732 14.5282 367 8.26018 367 0.528198H694C700.627 0.528198 706 5.90078 706 12.5282V184.528C706 191.156 700.627 196.528 694 196.528H367C367 188.796 360.732 182.528 353 182.528C345.268 182.528 339 188.796 339 196.528H12C5.37258 196.528 0 191.156 0 184.528V12.5282C0 5.90078 5.37258 0.528198 12 0.528198H339C339 8.26018 345.268 14.5282 353 14.5282ZM352 25.8265V28.7253H354V25.8265H352ZM352 34.5228V40.3203H354V34.5228H352ZM352 46.1179V51.9154H354V46.1179H352ZM352 57.7129V63.5104H354V57.7129H352ZM352 69.308V75.1055H354V69.308H352ZM352 80.903V86.7005H354V80.903H352ZM352 92.4981V98.2956H354V92.4981H352ZM352 104.093V109.891H354V104.093H352ZM352 115.688V121.486H354V115.688H352ZM352 127.283V133.081H354V127.283H352ZM352 138.878V144.676H354V138.878H352ZM352 150.473V156.271H354V150.473H352ZM352 162.068V167.866H354V162.068H352ZM352 173.663V176.562H354V173.663H352Z" fill="url(#paint0_linear_18_11)"/>
<defs>
<linearGradient id="paint0_linear_18_11" x1="353" y1="241.844" x2="353" y2="-28.8865" gradientUnits="userSpaceOnUse">
<stop stop-color="#00042A"/>
<stop offset="1" stop-color="#4443FF"/>
</linearGradient>
</defs>
</svg>
