<svg width="134" height="24" viewBox="0 0 134 24" fill="none" xmlns="http://www.w3.org/2000/svg">
<g clip-path="url(#clip0_8_21)">
<rect x="67.3092" y="0.133911" width="66" height="24" fill="#FF0055"/>
<path d="M9.35664 3.04591C11.2286 3.04591 12.8926 3.54191 14.3486 4.53391C15.8046 5.52591 16.8206 6.90191 17.3966 8.66191H12.5006C12.1646 8.00591 11.7406 7.53391 11.2286 7.24591C10.7166 6.95791 10.0926 6.81391 9.35664 6.81391C7.99664 6.81391 6.90864 7.25391 6.09264 8.13391C5.29263 9.01391 4.89263 10.1899 4.89263 11.6619C4.89263 13.1339 5.29263 14.3099 6.09264 15.1899C6.90864 16.0699 7.99664 16.5099 9.35664 16.5099C10.0926 16.5099 10.7166 16.3659 11.2286 16.0779C11.7406 15.7899 12.1646 15.3179 12.5006 14.6619H17.3966C16.8206 16.4219 15.8046 17.7979 14.3486 18.7899C12.8926 19.7819 11.2286 20.2779 9.35664 20.2779C7.77264 20.2779 6.31664 19.9099 4.98864 19.1739C3.67664 18.4379 2.63663 17.4139 1.86863 16.1019C1.10063 14.7899 0.716635 13.3099 0.716635 11.6619C0.716635 10.0139 1.10063 8.53391 1.86863 7.22191C2.63663 5.90991 3.67664 4.88591 4.98864 4.14991C6.31664 3.41391 7.77264 3.04591 9.35664 3.04591ZM26.0768 6.59791C27.3568 6.59791 28.5248 6.87791 29.5808 7.43791C30.6528 7.98191 31.5008 8.77391 32.1248 9.81391C32.7488 10.8379 33.0608 12.0379 33.0608 13.4139C33.0608 14.7899 32.7488 15.9979 32.1248 17.0379C31.5168 18.0779 30.6848 18.8859 29.6288 19.4619C28.5728 20.0219 27.3968 20.3019 26.1008 20.3019C24.8048 20.3019 23.6208 20.0219 22.5488 19.4619C21.4768 18.8859 20.6288 18.0779 20.0048 17.0379C19.3808 15.9979 19.0688 14.7899 19.0688 13.4139C19.0688 12.0379 19.3808 10.8379 20.0048 9.81391C20.6288 8.77391 21.4688 7.98191 22.5248 7.43791C23.5968 6.87791 24.7808 6.59791 26.0768 6.59791ZM26.0768 10.1019C25.2928 10.1019 24.6208 10.3899 24.0608 10.9659C23.5168 11.5259 23.2448 12.3499 23.2448 13.4379C23.2448 14.5259 23.5248 15.3579 24.0848 15.9339C24.6608 16.5099 25.3328 16.7979 26.1008 16.7979C26.8688 16.7979 27.5248 16.5099 28.0688 15.9339C28.6128 15.3579 28.8848 14.5259 28.8848 13.4379C28.8848 12.3499 28.6048 11.5259 28.0448 10.9659C27.4848 10.3899 26.8288 10.1019 26.0768 10.1019ZM39.8124 2.37391V20.1339H35.7084V2.37391H39.8124ZM49.4674 6.59791C50.7474 6.59791 51.9154 6.87791 52.9714 7.43791C54.0434 7.98191 54.8914 8.77391 55.5154 9.81391C56.1394 10.8379 56.4514 12.0379 56.4514 13.4139C56.4514 14.7899 56.1394 15.9979 55.5154 17.0379C54.9074 18.0779 54.0754 18.8859 53.0194 19.4619C51.9634 20.0219 50.7874 20.3019 49.4914 20.3019C48.1954 20.3019 47.0114 20.0219 45.9394 19.4619C44.8674 18.8859 44.0194 18.0779 43.3954 17.0379C42.7714 15.9979 42.4594 14.7899 42.4594 13.4139C42.4594 12.0379 42.7714 10.8379 43.3954 9.81391C44.0194 8.77391 44.8594 7.98191 45.9154 7.43791C46.9874 6.87791 48.1714 6.59791 49.4674 6.59791ZM49.4674 10.1019C48.6834 10.1019 48.0114 10.3899 47.4514 10.9659C46.9074 11.5259 46.6354 12.3499 46.6354 13.4379C46.6354 14.5259 46.9154 15.3579 47.4754 15.9339C48.0514 16.5099 48.7234 16.7979 49.4914 16.7979C50.2594 16.7979 50.9154 16.5099 51.4594 15.9339C52.0034 15.3579 52.2754 14.5259 52.2754 13.4379C52.2754 12.3499 51.9954 11.5259 51.4354 10.9659C50.8754 10.3899 50.2194 10.1019 49.4674 10.1019ZM63.2031 9.23791C63.6511 8.42191 64.2031 7.78191 64.8591 7.31791C65.5151 6.83791 66.2431 6.59791 67.0431 6.59791V10.7739H66.0351C65.0911 10.7739 64.3791 10.9979 63.8991 11.4459C63.4351 11.8939 63.2031 12.6779 63.2031 13.7979V20.1339H59.0991V6.74191H63.2031V9.23791Z" fill="#262626"/>
<path d="M84.4149 11.7099C84.4149 13.3419 84.0149 14.7979 83.2149 16.0779C82.4309 17.3579 81.3349 18.3579 79.9269 19.0779C78.5349 19.7819 76.9589 20.1339 75.1989 20.1339H69.2709V3.28591H75.1989C76.9749 3.28591 78.5589 3.63791 79.9509 4.34191C81.3429 5.04591 82.4309 6.03791 83.2149 7.31791C84.0149 8.59791 84.4149 10.0619 84.4149 11.7099ZM75.1989 17.0139C76.7669 17.0139 77.9989 16.5339 78.8949 15.5739C79.7909 14.6139 80.2389 13.3259 80.2389 11.7099C80.2389 10.0939 79.7909 8.80591 78.8949 7.84591C77.9989 6.88591 76.7669 6.40591 75.1989 6.40591H73.3749V17.0139H75.1989ZM94.6691 3.04591C96.2531 3.04591 97.7011 3.41391 99.0131 4.14991C100.341 4.88591 101.381 5.90991 102.133 7.22191C102.901 8.53391 103.285 10.0139 103.285 11.6619C103.285 13.3099 102.901 14.7979 102.133 16.1259C101.365 17.4379 100.325 18.4619 99.0131 19.1979C97.7011 19.9339 96.2531 20.3019 94.6691 20.3019C93.0851 20.3019 91.6291 19.9339 90.3011 19.1979C88.9891 18.4619 87.9491 17.4379 87.1811 16.1259C86.4131 14.7979 86.0291 13.3099 86.0291 11.6619C86.0291 10.0139 86.4131 8.53391 87.1811 7.22191C87.9491 5.90991 88.9891 4.88591 90.3011 4.14991C91.6291 3.41391 93.0851 3.04591 94.6691 3.04591ZM94.6691 6.81391C93.3091 6.81391 92.2211 7.25391 91.4051 8.13391C90.6051 9.01391 90.2051 10.1899 90.2051 11.6619C90.2051 13.1339 90.6051 14.3099 91.4051 15.1899C92.2211 16.0699 93.3091 16.5099 94.6691 16.5099C96.0131 16.5099 97.0851 16.0699 97.8851 15.1899C98.7011 14.3099 99.1091 13.1339 99.1091 11.6619C99.1091 10.1899 98.7011 9.01391 97.8851 8.13391C97.0851 7.25391 96.0131 6.81391 94.6691 6.81391ZM110.031 13.5819V20.1339H105.927V3.28591H112.575C113.887 3.28591 115.007 3.52591 115.935 4.00591C116.879 4.48591 117.583 5.11791 118.047 5.90191C118.527 6.68591 118.767 7.53391 118.767 8.44591C118.767 9.21391 118.575 9.98991 118.191 10.7739C117.823 11.5419 117.175 12.2059 116.247 12.7659C115.319 13.3099 114.095 13.5819 112.575 13.5819H110.031ZM112.575 10.4619C113.199 10.4619 113.687 10.2779 114.039 9.90991C114.407 9.54191 114.591 9.05391 114.591 8.44591C114.591 7.85391 114.407 7.36591 114.039 6.98191C113.671 6.59791 113.183 6.40591 112.575 6.40591H110.031V10.4619H112.575ZM125.336 6.35791V9.98191H130.712V13.1019H125.336V17.0139H131.432V20.1339H121.232V3.23791H131.432V6.35791H125.336Z" fill="white"/>
</g>
<defs>
<clipPath id="clip0_8_21">
<rect width="134" height="24" fill="white"/>
</clipPath>
</defs>
</svg>
