<svg width="707" height="197" viewBox="0 0 707 197" fill="none" xmlns="http://www.w3.org/2000/svg">
<path fill-rule="evenodd" clip-rule="evenodd" d="M353.52 14.2787C361.252 14.2787 367.52 8.01067 367.52 0.278687H694.52C701.148 0.278687 706.52 5.65127 706.52 12.2787V184.279C706.52 190.906 701.148 196.279 694.52 196.279H367.52C367.52 188.547 361.252 182.279 353.52 182.279C345.788 182.279 339.52 188.547 339.52 196.279H12.5201C5.89272 196.279 0.520142 190.906 0.520142 184.279V12.2787C0.520142 5.65126 5.89273 0.278687 12.5201 0.278687H339.52C339.52 8.01067 345.788 14.2787 353.52 14.2787ZM352.52 25.577V28.4758H354.52V25.577H352.52ZM352.52 34.2733V40.0708H354.52V34.2733H352.52ZM352.52 45.8684V51.6659H354.52V45.8684H352.52ZM352.52 57.4634V63.2609H354.52V57.4634H352.52ZM352.52 69.0584V74.856H354.52V69.0584H352.52ZM352.52 80.6535V86.451H354.52V80.6535H352.52ZM352.52 92.2485V98.0461H354.52V92.2485H352.52ZM352.52 103.844V109.641H354.52V103.844H352.52ZM352.52 115.439V121.236H354.52V115.439H352.52ZM352.52 127.034V132.831H354.52V127.034H352.52ZM352.52 138.629V144.426H354.52V138.629H352.52ZM352.52 150.224V156.021H354.52V150.224H352.52ZM352.52 161.819V167.616H354.52V161.819H352.52ZM352.52 173.414V176.313H354.52V173.414H352.52Z" fill="url(#paint0_linear_18_17)"/>
<defs>
<linearGradient id="paint0_linear_18_17" x1="353.52" y1="233.218" x2="353.52" y2="-39.5991" gradientUnits="userSpaceOnUse">
<stop stop-color="#009669"/>
<stop offset="1" stop-color="#79FFDF"/>
</linearGradient>
</defs>
</svg>
