<svg width="108" height="108" viewBox="0 0 108 108" fill="none" xmlns="http://www.w3.org/2000/svg">
<g clip-path="url(#clip0_29_320)">
<circle cx="44.3432" cy="73.8452" r="21.1309" fill="url(#paint0_linear_29_320)"/>
<path d="M42.9683 56.6146C43.1281 54.9488 45.5584 54.9488 45.7182 56.6146V56.6146C45.8545 58.0346 47.7917 58.3414 48.3601 57.0331V57.0331C49.0269 55.4982 51.3382 56.2492 50.9754 57.8829V57.8829C50.6662 59.2754 52.4138 60.1659 53.3587 59.0972V59.0972C54.4672 57.8435 56.4333 59.2719 55.5835 60.7136V60.7136C54.8591 61.9424 56.246 63.3294 57.4749 62.6049V62.6049C58.9165 61.7551 60.345 63.7213 59.0912 64.8297V64.8297C58.0225 65.7746 58.913 67.5222 60.3056 67.213V67.213C61.9392 66.8502 62.6902 69.1616 61.1554 69.8283V69.8283C59.847 70.3967 60.1538 72.334 61.5738 72.4702V72.4702C63.2396 72.6301 63.2396 75.0603 61.5738 75.2202V75.2202C60.1538 75.3564 59.847 77.2937 61.1554 77.862V77.862C62.6902 78.5288 61.9392 80.8401 60.3056 80.4774V80.4774C58.913 80.1682 58.0225 81.9158 59.0912 82.8607V82.8607C60.345 83.9691 58.9165 85.9353 57.4749 85.0854V85.0854C56.246 84.361 54.8591 85.7479 55.5835 86.9768V86.9768C56.4333 88.4184 54.4672 89.8469 53.3587 88.5932V88.5932C52.4138 87.5245 50.6662 88.4149 50.9754 89.8075V89.8075C51.3382 91.4412 49.0269 92.1922 48.3601 90.6573V90.6573C47.7917 89.3489 45.8545 89.6558 45.7182 91.0757V91.0757C45.5584 92.7415 43.1281 92.7415 42.9683 91.0757V91.0757C42.832 89.6558 40.8948 89.3489 40.3264 90.6573V90.6573C39.6596 92.1922 37.3483 91.4412 37.711 89.8075V89.8075C38.0202 88.4149 36.2726 87.5245 35.3277 88.5932V88.5932C34.2193 89.8469 32.2532 88.4184 33.103 86.9768V86.9768C33.8274 85.7479 32.4405 84.361 31.2116 85.0854V85.0854C29.77 85.9353 28.3415 83.9691 29.5952 82.8607V82.8607C30.6639 81.9158 29.7735 80.1682 28.3809 80.4774V80.4774C26.7472 80.8401 25.9962 78.5288 27.5311 77.862V77.862C28.8395 77.2937 28.5327 75.3564 27.1127 75.2202V75.2202C25.4469 75.0603 25.4469 72.6301 27.1127 72.4702V72.4702C28.5327 72.334 28.8395 70.3967 27.5311 69.8283V69.8283C25.9962 69.1616 26.7472 66.8502 28.3809 67.213V67.213C29.7735 67.5222 30.6639 65.7746 29.5952 64.8297V64.8297C28.3415 63.7213 29.77 61.7551 31.2116 62.6049V62.6049C32.4405 63.3294 33.8274 61.9424 33.103 60.7136V60.7136C32.2532 59.2719 34.2193 57.8435 35.3277 59.0972V59.0972C36.2726 60.1659 38.0202 59.2754 37.711 57.8829V57.8829C37.3483 56.2492 39.6596 55.4982 40.3264 57.0331V57.0331C40.8948 58.3414 42.832 58.0346 42.9683 56.6146V56.6146Z" fill="#017C3A"/>
<path d="M44.3432 56.184L45.3985 67.1822L49.8008 57.0484L47.4058 67.8344L54.7242 59.5569L49.1133 69.075L58.6314 63.4642L50.3539 70.7825L61.14 68.3875L51.0061 72.7899L62.0044 73.8452L51.0061 74.9005L61.14 79.3028L50.3539 76.9078L58.6314 84.2261L49.1133 78.6153L54.7242 88.1334L47.4058 79.8559L49.8008 90.642L45.3985 80.5081L44.3432 91.5064L43.2879 80.5081L38.8856 90.642L41.2806 79.8559L33.9622 88.1334L39.5731 78.6153L30.055 84.2261L38.3325 76.9078L27.5464 79.3028L37.6803 74.9005L26.682 73.8452L37.6803 72.7899L27.5464 68.3875L38.3325 70.7825L30.055 63.4642L39.5731 69.075L33.9622 59.5569L41.2806 67.8344L38.8856 57.0484L43.2879 67.1822L44.3432 56.184Z" fill="#52BE84"/>
<circle cx="44.3431" cy="71.2578" r="15.0738" fill="url(#paint1_linear_29_320)"/>
<ellipse cx="45.9636" cy="61.8522" rx="8.13939" ry="4.54389" transform="rotate(10.5142 45.9636 61.8522)" fill="url(#paint2_linear_29_320)"/>
<path d="M30.7241 81.0953C35.3736 87.7476 47.2641 94.139 57.9623 80.5686C54.3625 89.1601 40.3541 97.2194 30.7241 81.0953Z" fill="#52BE84"/>
<ellipse cx="33.0997" cy="68.1868" rx="3.1875" ry="2.64415" transform="rotate(-52.8796 33.0997 68.1868)" fill="url(#paint3_linear_29_320)"/>
<circle cx="44.3431" cy="73.8451" r="12.4865" fill="url(#paint4_linear_29_320)"/>
<circle cx="44.3431" cy="73.8451" r="12.2463" stroke="#3EAA71" stroke-opacity="0.2" stroke-width="0.480248"/>
<path d="M42.3928 75.9304H39.6014V78.7864H36.9552V75.9304H34.1638V73.4294H36.9552V70.5573H39.6014V73.4294H42.3928V75.9304ZM49.6116 73.736C50.3324 73.9296 50.9132 74.1232 51.3543 74.3169C51.806 74.5105 52.1933 74.8224 52.516 75.2527C52.8387 75.6722 53.0001 76.237 53.0001 76.9469C53.0001 77.5278 52.8441 78.0764 52.5321 78.5927C52.2309 79.0983 51.7953 79.5124 51.2252 79.8352C50.6658 80.1579 50.0204 80.3515 49.2889 80.416V81.723H48.3369V80.416C47.1537 80.3407 46.2178 80.0019 45.5294 79.3995C44.8409 78.7864 44.4967 77.9527 44.4967 76.8985H47.4334C47.4979 77.6192 47.7991 78.0495 48.3369 78.1893V75.6561L47.8852 75.527C47.1752 75.3334 46.5943 75.1344 46.1425 74.93C45.6907 74.7256 45.3035 74.4137 44.9808 73.9941C44.6581 73.5746 44.4967 73.0153 44.4967 72.3161C44.4967 71.6599 44.6688 71.0844 45.0131 70.5896C45.3573 70.084 45.8198 69.686 46.4007 69.3956C46.9816 69.0944 47.627 68.9115 48.3369 68.847V67.54H49.2889V68.847C50.4184 68.9115 51.3112 69.2235 51.9674 69.7828C52.6236 70.3314 52.9678 71.1651 53.0001 72.2838H50.1602C50.128 71.9934 50.0312 71.746 49.8698 71.5416C49.7192 71.3372 49.5256 71.1866 49.2889 71.0898V73.6392L49.6116 73.736ZM47.4011 72.1224C47.4011 72.6495 47.713 73.0475 48.3369 73.3165V71.0575C48.0573 71.1113 47.8314 71.2296 47.6593 71.4125C47.4871 71.5846 47.4011 71.8213 47.4011 72.1224ZM49.2889 78.1893C49.5471 78.114 49.7461 77.985 49.8859 77.8021C50.0258 77.6085 50.0957 77.3772 50.0957 77.1083C50.0957 76.8609 50.0258 76.6511 49.8859 76.479C49.7461 76.2961 49.5471 76.1402 49.2889 76.0111V78.1893Z" fill="url(#paint5_linear_29_320)"/>
</g>
<g clip-path="url(#clip1_29_320)">
<circle cx="80.5312" cy="37.0676" r="17.8169" fill="url(#paint6_linear_29_320)"/>
<path d="M79.3718 22.5395C79.5066 21.1349 81.5557 21.1349 81.6905 22.5395V22.5395C81.8054 23.7367 83.4388 23.9954 83.918 22.8923V22.8923C84.4802 21.5981 86.4291 22.2313 86.1232 23.6088V23.6088C85.8625 24.783 87.336 25.5338 88.1327 24.6327V24.6327C89.0673 23.5756 90.7251 24.78 90.0085 25.9955V25.9955C89.3977 27.0317 90.5671 28.2011 91.6033 27.5903V27.5903C92.8188 26.8737 94.0233 28.5315 92.9662 29.4661V29.4661C92.0651 30.2628 92.8159 31.7363 93.9901 31.4756V31.4756C95.3675 31.1698 96.0007 33.1186 94.7066 33.6808V33.6808C93.6034 34.16 93.8621 35.7935 95.0594 35.9083V35.9083C96.4639 36.0431 96.4639 38.0922 95.0594 38.227V38.227C93.8621 38.3419 93.6034 39.9753 94.7066 40.4545V40.4545C96.0007 41.0167 95.3675 42.9656 93.9901 42.6597V42.6597C92.8159 42.399 92.0651 43.8725 92.9662 44.6692V44.6692C94.0233 45.6038 92.8188 47.2616 91.6033 46.545V46.545C90.5671 45.9342 89.3977 47.1036 90.0085 48.1398V48.1398C90.7251 49.3553 89.0673 50.5598 88.1327 49.5027V49.5027C87.336 48.6016 85.8625 49.3524 86.1232 50.5265V50.5265C86.4291 51.904 84.4802 52.5372 83.918 51.2431V51.2431C83.4388 50.1399 81.8054 50.3986 81.6905 51.5959V51.5959C81.5557 53.0004 79.5066 53.0004 79.3718 51.5959V51.5959C79.257 50.3986 77.6235 50.1399 77.1443 51.2431V51.2431C76.5821 52.5372 74.6333 51.904 74.9391 50.5265V50.5265C75.1998 49.3524 73.7263 48.6016 72.9296 49.5027V49.5027C71.995 50.5598 70.3372 49.3553 71.0538 48.1398V48.1398C71.6646 47.1036 70.4952 45.9342 69.459 46.545V46.545C68.2435 47.2616 67.0391 45.6038 68.0962 44.6692V44.6692C68.9973 43.8725 68.2465 42.399 67.0723 42.6597V42.6597C65.6948 42.9656 65.0616 41.0167 66.3558 40.4545V40.4545C67.4589 39.9753 67.2002 38.3419 66.003 38.227V38.227C64.5984 38.0922 64.5984 36.0431 66.003 35.9083V35.9083C67.2002 35.7935 67.4589 34.16 66.3558 33.6808V33.6808C65.0616 33.1186 65.6948 31.1698 67.0723 31.4756V31.4756C68.2465 31.7363 68.9973 30.2628 68.0962 29.4661V29.4661C67.0391 28.5315 68.2435 26.8737 69.459 27.5903V27.5903C70.4952 28.2011 71.6646 27.0317 71.0538 25.9955V25.9955C70.3372 24.78 71.995 23.5756 72.9296 24.6327V24.6327C73.7263 25.5338 75.1998 24.783 74.9391 23.6088V23.6088C74.6333 22.2313 76.5821 21.5981 77.1443 22.8923V22.8923C77.6235 23.9954 79.257 23.7367 79.3718 22.5395V22.5395Z" fill="#01067C"/>
<path d="M80.5312 22.1763L81.421 31.4496L85.1329 22.9051L83.1135 31.9996L89.2841 25.0203L84.5532 33.0456L92.5785 28.3147L85.5992 34.4853L94.6937 32.4659L86.1491 36.1778L95.4225 37.0676L86.1491 37.9574L94.6937 41.6692L85.5992 39.6499L92.5785 45.8205L84.5532 41.0896L89.2841 49.1149L83.1135 42.1356L85.1329 51.23L81.421 42.6855L80.5312 51.9589L79.6414 42.6855L75.9295 51.23L77.9489 42.1356L71.7783 49.1149L76.5092 41.0896L68.4839 45.8205L75.4632 39.6499L66.3687 41.6692L74.9133 37.9574L65.6399 37.0676L74.9133 36.1778L66.3687 32.4659L75.4632 34.4853L68.4839 28.3147L76.5092 33.0456L71.7783 25.0203L77.9489 31.9996L75.9295 22.9051L79.6414 31.4496L80.5312 22.1763Z" fill="#5256BE"/>
<circle cx="80.5311" cy="34.886" r="12.7097" fill="url(#paint7_linear_29_320)"/>
<ellipse cx="81.8975" cy="26.9555" rx="6.86285" ry="3.83125" transform="rotate(10.5142 81.8975 26.9555)" fill="url(#paint8_linear_29_320)"/>
<path d="M69.048 43.1806C72.9683 48.7897 82.9939 54.1786 92.0142 42.7366C88.979 49.9806 77.1676 56.776 69.048 43.1806Z" fill="#5256BE"/>
<ellipse cx="71.051" cy="32.2967" rx="2.68759" ry="2.22946" transform="rotate(-52.8796 71.051 32.2967)" fill="url(#paint9_linear_29_320)"/>
<circle cx="80.5312" cy="37.0676" r="10.5281" fill="url(#paint10_linear_29_320)"/>
<circle cx="80.5312" cy="37.0676" r="10.3257" stroke="#3E49AA" stroke-opacity="0.2" stroke-width="0.404928"/>
<path d="M83.971 33.5091H79.0956V35.5824C79.3116 35.388 79.587 35.2314 79.9217 35.1127C80.2672 34.9939 80.6398 34.9345 81.0393 34.9345C81.9463 34.9345 82.6806 35.1343 83.2421 35.5338C83.8144 35.9225 84.2193 36.4138 84.4569 37.0077C84.7053 37.5908 84.8294 38.1901 84.8294 38.8056C84.8294 40.069 84.4569 41.0732 83.7118 41.8183C82.9668 42.5525 81.9193 42.9197 80.5696 42.9197C79.7381 42.9197 79.0093 42.7793 78.383 42.4986C77.7675 42.207 77.2816 41.8075 76.9252 41.3C76.5797 40.7925 76.3745 40.2202 76.3097 39.5831H79.0471C79.101 39.8962 79.2684 40.1554 79.5492 40.3605C79.8299 40.5549 80.1862 40.6521 80.6182 40.6521C81.1365 40.6521 81.5198 40.4955 81.7682 40.1824C82.0273 39.8584 82.1569 39.4265 82.1569 38.8866C82.1569 38.3683 82.0219 37.9634 81.752 37.6718C81.4928 37.3803 81.1149 37.2345 80.6182 37.2345C80.2294 37.2345 79.9163 37.3317 79.6787 37.526C79.452 37.7096 79.3116 37.9418 79.2576 38.2225H76.5851V31.0796H83.971V33.5091Z" fill="#4443FF"/>
</g>
<g clip-path="url(#clip2_29_320)">
<circle cx="23.8231" cy="27.1953" r="14.1713" fill="url(#paint11_linear_29_320)"/>
<path d="M22.901 15.6397C23.0082 14.5226 24.638 14.5226 24.7452 15.6397V15.6397C24.8366 16.592 26.1358 16.7978 26.517 15.9204V15.9204C26.9641 14.891 28.5142 15.3947 28.2709 16.4903V16.4903C28.0636 17.4242 29.2356 18.0214 29.8693 17.3047V17.3047C30.6126 16.4639 31.9312 17.4219 31.3613 18.3887V18.3887C30.8755 19.2128 31.8056 20.1429 32.6297 19.6571V19.6571C33.5965 19.0872 34.5545 20.4057 33.7137 21.1491V21.1491C32.997 21.7828 33.5942 22.9548 34.5281 22.7474V22.7474C35.6237 22.5042 36.1274 24.0542 35.098 24.5014V24.5014C34.2206 24.8826 34.4263 26.1818 35.3786 26.2732V26.2732C36.4958 26.3804 36.4958 28.0102 35.3786 28.1174V28.1174C34.4263 28.2088 34.2206 29.508 35.098 29.8892V29.8892C36.1274 30.3363 35.6237 31.8864 34.5281 31.6431V31.6431C33.5942 31.4358 32.997 32.6078 33.7137 33.2415V33.2415C34.5545 33.9848 33.5965 35.3034 32.6297 34.7335V34.7335C31.8056 34.2476 30.8755 35.1778 31.3613 36.0019V36.0019C31.9312 36.9687 30.6126 37.9267 29.8693 37.0859V37.0859C29.2356 36.3692 28.0636 36.9664 28.2709 37.9003V37.9003C28.5142 38.9959 26.9641 39.4996 26.517 38.4702V38.4702C26.1358 37.5928 24.8366 37.7985 24.7452 38.7508V38.7508C24.638 39.868 23.0082 39.868 22.901 38.7508V38.7508C22.8096 37.7985 21.5104 37.5928 21.1292 38.4702V38.4702C20.682 39.4996 19.132 38.9959 19.3753 37.9003V37.9003C19.5826 36.9664 18.4106 36.3692 17.7769 37.0859V37.0859C17.0336 37.9267 15.715 36.9687 16.2849 36.0019V36.0019C16.7707 35.1778 15.8406 34.2476 15.0165 34.7335V34.7335C14.0497 35.3034 13.0917 33.9848 13.9325 33.2415V33.2415C14.6492 32.6078 14.052 31.4358 13.1181 31.6431V31.6431C12.0225 31.8864 11.5188 30.3363 12.5482 29.8892V29.8892C13.4256 29.508 13.2199 28.2088 12.2676 28.1174V28.1174C11.1504 28.0102 11.1504 26.3804 12.2676 26.2732V26.2732C13.2199 26.1818 13.4256 24.8826 12.5482 24.5014V24.5014C11.5188 24.0542 12.0225 22.5042 13.1181 22.7474V22.7474C14.052 22.9548 14.6492 21.7828 13.9325 21.1491V21.1491C13.0917 20.4057 14.0497 19.0872 15.0165 19.6571V19.6571C15.8406 20.1429 16.7707 19.2128 16.2849 18.3887V18.3887C15.715 17.4219 17.0336 16.4639 17.7769 17.3047V17.3047C18.4106 18.0214 19.5826 17.4242 19.3753 16.4903V16.4903C19.132 15.3947 20.682 14.891 21.1292 15.9204V15.9204C21.5104 16.7978 22.8096 16.592 22.901 15.6397V15.6397Z" fill="#7C0101"/>
<path d="M23.8231 15.351L24.5308 22.7269L27.4832 15.9307L25.877 23.1643L30.785 17.613L27.0222 23.9963L33.4054 20.2334L27.8541 25.1414L35.0878 23.5352L28.2915 26.4876L35.6675 27.1953L28.2915 27.903L35.0878 30.8554L27.8541 29.2492L33.4054 34.1572L27.0222 30.3944L30.785 36.7776L25.877 31.2263L27.4832 38.4599L24.5308 31.6637L23.8231 39.0396L23.1154 31.6637L20.163 38.4599L21.7692 31.2263L16.8612 36.7776L20.6241 30.3944L14.2408 34.1572L19.7921 29.2492L12.5585 30.8554L19.3547 27.903L11.9788 27.1953L19.3547 26.4876L12.5585 23.5352L19.7921 25.1414L14.2408 20.2334L20.6241 23.9963L16.8612 17.613L21.7692 23.1643L20.163 15.9307L23.1154 22.7269L23.8231 15.351Z" fill="#BE5252"/>
<circle cx="23.8231" cy="25.4601" r="10.1091" fill="url(#paint12_linear_29_320)"/>
<ellipse cx="24.9099" cy="19.1523" rx="5.45862" ry="3.04733" transform="rotate(10.5142 24.9099 19.1523)" fill="url(#paint13_linear_29_320)"/>
<path d="M14.6897 32.0575C17.8079 36.5189 25.7821 40.8052 32.9568 31.7043C30.5426 37.4662 21.1479 42.8711 14.6897 32.0575Z" fill="#BE5252"/>
<ellipse cx="16.2828" cy="23.4007" rx="2.13767" ry="1.77328" transform="rotate(-52.8796 16.2828 23.4007)" fill="url(#paint14_linear_29_320)"/>
<circle cx="23.8232" cy="27.1954" r="8.37395" fill="url(#paint15_linear_29_320)"/>
<circle cx="23.8232" cy="27.1954" r="8.21291" stroke="#AA3E3E" stroke-opacity="0.2" stroke-width="0.322075"/>
<path d="M22.4734 28.5222H20.6013V30.4376H18.8267V28.5222H16.9546V26.845H18.8267V24.9188H20.6013V26.845H22.4734V28.5222ZM28.7538 25.1028V25.7088H29.6736V26.9532H28.6997C28.5843 27.6241 28.3029 28.1363 27.8556 28.4898C27.4084 28.8361 26.7519 29.0092 25.8862 29.0092V29.2905C25.8862 29.5647 25.9295 29.7811 26.0161 29.9398C26.1098 30.0985 26.3046 30.1779 26.6004 30.1779C27.0765 30.1779 27.3146 29.8857 27.3146 29.3014H29.0243C29.0243 30.0444 28.8151 30.6107 28.3967 31.0003C27.9783 31.3826 27.3687 31.5738 26.5679 31.5738C25.7888 31.5738 25.1901 31.3754 24.7716 30.9786C24.3604 30.5746 24.1548 29.9687 24.1548 29.1607V27.7972C24.9123 27.7972 25.4678 27.7792 25.8213 27.7431C26.182 27.7071 26.4489 27.6313 26.622 27.5159C26.7952 27.4005 26.9106 27.2129 26.9683 26.9532H23.7869V25.7088H27.0224V25.1028H23.7869V23.8475H29.6736V25.1028H28.7538Z" fill="#FF0000"/>
</g>
<defs>
<linearGradient id="paint0_linear_29_320" x1="44.3432" y1="52.7142" x2="44.3432" y2="94.9761" gradientUnits="userSpaceOnUse">
<stop stop-color="#8AF5BC"/>
<stop offset="1" stop-color="#07743A"/>
</linearGradient>
<linearGradient id="paint1_linear_29_320" x1="44.3431" y1="56.184" x2="44.3431" y2="86.3316" gradientUnits="userSpaceOnUse">
<stop stop-color="white" stop-opacity="0.46"/>
<stop offset="1" stop-color="white" stop-opacity="0"/>
</linearGradient>
<linearGradient id="paint2_linear_29_320" x1="45.9636" y1="57.3083" x2="45.9636" y2="64.476" gradientUnits="userSpaceOnUse">
<stop stop-color="white" stop-opacity="0.88"/>
<stop offset="1" stop-color="white" stop-opacity="0"/>
</linearGradient>
<linearGradient id="paint3_linear_29_320" x1="33.0997" y1="65.5426" x2="33.0997" y2="69.7136" gradientUnits="userSpaceOnUse">
<stop stop-color="white" stop-opacity="0.88"/>
<stop offset="1" stop-color="white" stop-opacity="0"/>
</linearGradient>
<linearGradient id="paint4_linear_29_320" x1="44.3431" y1="61.3586" x2="44.3431" y2="86.3315" gradientUnits="userSpaceOnUse">
<stop stop-color="white"/>
<stop offset="1" stop-color="#87F2B9"/>
</linearGradient>
<linearGradient id="paint5_linear_29_320" x1="43.4656" y1="62.3192" x2="43.4656" y2="86.3192" gradientUnits="userSpaceOnUse">
<stop stop-color="#8AF5BC"/>
<stop offset="1" stop-color="#07743A"/>
</linearGradient>
<linearGradient id="paint6_linear_29_320" x1="80.5312" y1="19.2507" x2="80.5312" y2="54.8844" gradientUnits="userSpaceOnUse">
<stop stop-color="#4443FF"/>
<stop offset="1" stop-color="#090774"/>
</linearGradient>
<linearGradient id="paint7_linear_29_320" x1="80.5311" y1="22.1763" x2="80.5311" y2="47.5957" gradientUnits="userSpaceOnUse">
<stop stop-color="white" stop-opacity="0.46"/>
<stop offset="1" stop-color="white" stop-opacity="0"/>
</linearGradient>
<linearGradient id="paint8_linear_29_320" x1="81.8975" y1="23.1243" x2="81.8975" y2="29.1679" gradientUnits="userSpaceOnUse">
<stop stop-color="white" stop-opacity="0.88"/>
<stop offset="1" stop-color="white" stop-opacity="0"/>
</linearGradient>
<linearGradient id="paint9_linear_29_320" x1="71.051" y1="30.0672" x2="71.051" y2="33.5841" gradientUnits="userSpaceOnUse">
<stop stop-color="white" stop-opacity="0.88"/>
<stop offset="1" stop-color="white" stop-opacity="0"/>
</linearGradient>
<linearGradient id="paint10_linear_29_320" x1="80.5312" y1="26.5394" x2="80.5312" y2="47.5957" gradientUnits="userSpaceOnUse">
<stop stop-color="white"/>
<stop offset="1" stop-color="#878BF2"/>
</linearGradient>
<linearGradient id="paint11_linear_29_320" x1="23.8231" y1="13.024" x2="23.8231" y2="41.3666" gradientUnits="userSpaceOnUse">
<stop stop-color="#FF0000"/>
<stop offset="1" stop-color="#830000"/>
</linearGradient>
<linearGradient id="paint12_linear_29_320" x1="23.8231" y1="15.351" x2="23.8231" y2="35.5692" gradientUnits="userSpaceOnUse">
<stop stop-color="white" stop-opacity="0.46"/>
<stop offset="1" stop-color="white" stop-opacity="0"/>
</linearGradient>
<linearGradient id="paint13_linear_29_320" x1="24.9099" y1="16.105" x2="24.9099" y2="20.9119" gradientUnits="userSpaceOnUse">
<stop stop-color="white" stop-opacity="0.88"/>
<stop offset="1" stop-color="white" stop-opacity="0"/>
</linearGradient>
<linearGradient id="paint14_linear_29_320" x1="16.2828" y1="21.6274" x2="16.2828" y2="24.4247" gradientUnits="userSpaceOnUse">
<stop stop-color="white" stop-opacity="0.88"/>
<stop offset="1" stop-color="white" stop-opacity="0"/>
</linearGradient>
<linearGradient id="paint15_linear_29_320" x1="23.8232" y1="18.8214" x2="23.8232" y2="35.5693" gradientUnits="userSpaceOnUse">
<stop stop-color="white"/>
<stop offset="1" stop-color="#F28787"/>
</linearGradient>
<clipPath id="clip0_29_320">
<rect width="42.2618" height="42.2618" fill="white" transform="translate(23.2123 52.7142)"/>
</clipPath>
<clipPath id="clip1_29_320">
<rect width="35.6337" height="35.6337" fill="white" transform="translate(62.7144 19.2507)"/>
</clipPath>
<clipPath id="clip2_29_320">
<rect width="28.3426" height="28.3426" fill="white" transform="translate(9.65186 13.024)"/>
</clipPath>
</defs>
</svg>
