<svg width="706" height="197" viewBox="0 0 706 197" fill="none" xmlns="http://www.w3.org/2000/svg">
<path fill-rule="evenodd" clip-rule="evenodd" d="M353 14.7094C360.732 14.7094 367 8.44134 367 0.709351H694C700.627 0.709351 706 6.08193 706 12.7094V184.709C706 191.337 700.627 196.709 694 196.709H367C367 188.977 360.732 182.709 353 182.709C345.268 182.709 339 188.977 339 196.709H12C5.37258 196.709 0 191.337 0 184.709V12.7093C0 6.08193 5.37258 0.709351 12 0.709351H339C339 8.44134 345.268 14.7094 353 14.7094ZM352 26.0077V28.9065H354V26.0077H352ZM352 34.704V40.5015H354V34.704H352ZM352 46.299V52.0965H354V46.299H352ZM352 57.8941V63.6916H354V57.8941H352ZM352 69.4891V75.2866H354V69.4891H352ZM352 81.0842V86.8817H354V81.0842H352ZM352 92.6792V98.4767H354V92.6792H352ZM352 104.274V110.072H354V104.274H352ZM352 115.869V121.667H354V115.869H352ZM352 127.464V133.262H354V127.464H352ZM352 139.059V144.857H354V139.059H352ZM352 150.654V156.452H354V150.654H352ZM352 162.249V168.047H354V162.249H352ZM352 173.845V176.743H354V173.845H352Z" fill="url(#paint0_linear_18_10)"/>
<defs>
<linearGradient id="paint0_linear_18_10" x1="353" y1="196.709" x2="353" y2="0.709351" gradientUnits="userSpaceOnUse">
<stop stop-color="#F94F4F"/>
<stop offset="1" stop-color="#FF8282"/>
</linearGradient>
</defs>
</svg>
