<svg width="44" height="44" viewBox="0 0 44 44" fill="none" xmlns="http://www.w3.org/2000/svg">
<g clip-path="url(#clip0_24_68)">
<circle cx="22" cy="22" r="22" fill="url(#paint0_linear_24_68)"/>
<path d="M20.5685 4.06081C20.7349 2.32649 23.2651 2.32649 23.4315 4.06081V4.06081C23.5734 5.5392 25.5903 5.85865 26.1821 4.49646V4.49646C26.8763 2.89844 29.2827 3.68033 28.905 5.38119V5.38119C28.583 6.83105 30.4025 7.75813 31.3863 6.64547V6.64547C32.5403 5.34019 34.5873 6.82742 33.7025 8.32833V8.32833C32.9483 9.60774 34.3923 11.0517 35.6717 10.2975V10.2975C37.1726 9.41272 38.6598 11.4597 37.3546 12.6138V12.6138C36.2419 13.5975 37.169 15.417 38.6188 15.095V15.095C40.3197 14.7174 41.1016 17.1238 39.5036 17.818V17.818C38.1414 18.4097 38.4608 20.4267 39.9392 20.5685V20.5685C41.6735 20.7349 41.6735 23.2651 39.9392 23.4316V23.4316C38.4608 23.5734 38.1414 25.5903 39.5036 26.1821V26.1821C41.1016 26.8763 40.3197 29.2827 38.6188 28.905V28.905C37.169 28.5831 36.2419 30.4026 37.3546 31.3863V31.3863C38.6598 32.5403 37.1726 34.5873 35.6717 33.7026V33.7026C34.3923 32.9484 32.9483 34.3923 33.7025 35.6717V35.6717C34.5873 37.1726 32.5403 38.6599 31.3863 37.3546V37.3546C30.4025 36.2419 28.583 37.169 28.905 38.6189V38.6189C29.2827 40.3197 26.8763 41.1016 26.1821 39.5036V39.5036C25.5903 38.1414 23.5734 38.4609 23.4315 39.9392V39.9392C23.2651 41.6736 20.7349 41.6736 20.5685 39.9392V39.9392C20.4266 38.4609 18.4097 38.1414 17.8179 39.5036V39.5036C17.1237 41.1016 14.7173 40.3197 15.095 38.6189V38.6189C15.417 37.169 13.5975 36.2419 12.6137 37.3546V37.3546C11.4597 38.6599 9.41268 37.1726 10.2975 35.6717V35.6717C11.0517 34.3923 9.60771 32.9484 8.3283 33.7026V33.7026C6.82739 34.5873 5.34016 32.5403 6.64544 31.3863V31.3863C7.7581 30.4026 6.83102 28.5831 5.38116 28.905V28.905C3.6803 29.2827 2.89841 26.8763 4.49643 26.1821V26.1821C5.85862 25.5903 5.53917 23.5734 4.06078 23.4316V23.4316C2.32646 23.2651 2.32646 20.7349 4.06078 20.5685V20.5685C5.53917 20.4267 5.85862 18.4097 4.49643 17.818V17.818C2.89841 17.1238 3.6803 14.7174 5.38116 15.095V15.095C6.83102 15.417 7.7581 13.5975 6.64544 12.6138V12.6138C5.34016 11.4597 6.82738 9.41271 8.3283 10.2975V10.2975C9.60771 11.0517 11.0517 9.60774 10.2975 8.32833V8.32833C9.41268 6.82741 11.4597 5.34019 12.6137 6.64547V6.64547C13.5975 7.75813 15.417 6.83105 15.095 5.38119V5.38119C14.7173 3.68033 17.1237 2.89844 17.8179 4.49646V4.49646C18.4097 5.85865 20.4266 5.5392 20.5685 4.06081V4.06081Z" fill="#017C3A"/>
<path d="M22 3.61243L23.0987 15.063L27.682 4.51238L25.1885 15.7421L32.8079 7.12414L26.9663 17.0337L36.8758 11.1921L28.2579 18.8114L39.4876 16.3179L28.9369 20.9013L40.3875 22L28.9369 23.0987L39.4876 27.6821L28.2579 25.1886L36.8758 32.8079L26.9663 26.9663L32.8079 36.8759L25.1885 28.2579L27.682 39.4876L23.0987 28.937L22 40.3876L20.9013 28.937L16.3179 39.4876L18.8114 28.2579L11.192 36.8759L17.0337 26.9663L7.12411 32.8079L15.742 25.1886L4.51235 27.6821L15.063 23.0987L3.6124 22L15.063 20.9013L4.51235 16.3179L15.742 18.8114L7.12411 11.1921L17.0337 17.0337L11.192 7.12414L18.8114 15.7421L16.3179 4.51238L20.9013 15.063L22 3.61243Z" fill="#52BE84"/>
<circle cx="21.9999" cy="19.3062" r="15.6938" fill="url(#paint1_linear_24_68)"/>
<ellipse cx="23.6871" cy="9.51375" rx="8.47415" ry="4.73077" transform="rotate(10.5142 23.6871 9.51375)" fill="url(#paint2_linear_24_68)"/>
<path d="M7.82077 29.5483C12.6615 36.4743 25.041 43.1285 36.1792 29C32.4314 37.9449 17.8468 46.3356 7.82077 29.5483Z" fill="#52BE84"/>
<ellipse cx="10.2941" cy="16.109" rx="3.3186" ry="2.7529" transform="rotate(-52.8796 10.2941 16.109)" fill="url(#paint3_linear_24_68)"/>
<circle cx="22" cy="22" r="13" fill="url(#paint4_linear_24_68)"/>
<circle cx="22" cy="22" r="12.75" stroke="#3EAA71" stroke-opacity="0.2" stroke-width="0.5"/>
<path d="M18.06 17.98V14.8H24.02V29H20.48V17.98H18.06Z" fill="url(#paint5_linear_24_68)"/>
</g>
<defs>
<linearGradient id="paint0_linear_24_68" x1="22" y1="0" x2="22" y2="44" gradientUnits="userSpaceOnUse">
<stop stop-color="#8AF5BC"/>
<stop offset="1" stop-color="#07743A"/>
</linearGradient>
<linearGradient id="paint1_linear_24_68" x1="21.9999" y1="3.61243" x2="21.9999" y2="35" gradientUnits="userSpaceOnUse">
<stop stop-color="white" stop-opacity="0.46"/>
<stop offset="1" stop-color="white" stop-opacity="0"/>
</linearGradient>
<linearGradient id="paint2_linear_24_68" x1="23.6871" y1="4.78297" x2="23.6871" y2="12.2455" gradientUnits="userSpaceOnUse">
<stop stop-color="white" stop-opacity="0.88"/>
<stop offset="1" stop-color="white" stop-opacity="0"/>
</linearGradient>
<linearGradient id="paint3_linear_24_68" x1="10.2941" y1="13.3561" x2="10.2941" y2="17.6986" gradientUnits="userSpaceOnUse">
<stop stop-color="white" stop-opacity="0.88"/>
<stop offset="1" stop-color="white" stop-opacity="0"/>
</linearGradient>
<linearGradient id="paint4_linear_24_68" x1="22" y1="9" x2="22" y2="35" gradientUnits="userSpaceOnUse">
<stop stop-color="white"/>
<stop offset="1" stop-color="#87F2B9"/>
</linearGradient>
<linearGradient id="paint5_linear_24_68" x1="22" y1="7" x2="22" y2="37" gradientUnits="userSpaceOnUse">
<stop stop-color="#8AF5BC"/>
<stop offset="1" stop-color="#07743A"/>
</linearGradient>
<clipPath id="clip0_24_68">
<rect width="44" height="44" fill="white"/>
</clipPath>
</defs>
</svg>
