<svg width="44" height="44" viewBox="0 0 44 44" fill="none" xmlns="http://www.w3.org/2000/svg">
<g clip-path="url(#clip0_24_96)">
<circle cx="22" cy="22" r="22" fill="url(#paint0_linear_24_96)"/>
<path d="M20.5685 4.06081C20.7349 2.32649 23.2651 2.32649 23.4316 4.06081V4.06081C23.5734 5.5392 25.5903 5.85865 26.1821 4.49646V4.49646C26.8763 2.89844 29.2827 3.68033 28.905 5.38119V5.38119C28.5831 6.83105 30.4026 7.75813 31.3863 6.64547V6.64547C32.5403 5.34019 34.5873 6.82742 33.7026 8.32833V8.32833C32.9484 9.60774 34.3923 11.0517 35.6717 10.2975V10.2975C37.1726 9.41272 38.6599 11.4597 37.3546 12.6138V12.6138C36.2419 13.5975 37.169 15.417 38.6189 15.095V15.095C40.3197 14.7174 41.1016 17.1238 39.5036 17.818V17.818C38.1414 18.4097 38.4609 20.4267 39.9392 20.5685V20.5685C41.6736 20.7349 41.6736 23.2651 39.9392 23.4316V23.4316C38.4609 23.5734 38.1414 25.5903 39.5036 26.1821V26.1821C41.1016 26.8763 40.3197 29.2827 38.6189 28.905V28.905C37.169 28.5831 36.2419 30.4026 37.3546 31.3863V31.3863C38.6599 32.5403 37.1726 34.5873 35.6717 33.7026V33.7026C34.3923 32.9484 32.9484 34.3923 33.7026 35.6717V35.6717C34.5873 37.1726 32.5403 38.6599 31.3863 37.3546V37.3546C30.4026 36.2419 28.5831 37.169 28.905 38.6189V38.6189C29.2827 40.3197 26.8763 41.1016 26.1821 39.5036V39.5036C25.5903 38.1414 23.5734 38.4609 23.4316 39.9392V39.9392C23.2651 41.6736 20.7349 41.6736 20.5685 39.9392V39.9392C20.4267 38.4609 18.4097 38.1414 17.818 39.5036V39.5036C17.1238 41.1016 14.7174 40.3197 15.095 38.6189V38.6189C15.417 37.169 13.5975 36.2419 12.6138 37.3546V37.3546C11.4597 38.6599 9.41272 37.1726 10.2975 35.6717V35.6717C11.0517 34.3923 9.60774 32.9484 8.32833 33.7026V33.7026C6.82742 34.5873 5.34019 32.5403 6.64547 31.3863V31.3863C7.75813 30.4026 6.83105 28.5831 5.38119 28.905V28.905C3.68033 29.2827 2.89844 26.8763 4.49646 26.1821V26.1821C5.85865 25.5903 5.5392 23.5734 4.06081 23.4316V23.4316C2.32649 23.2651 2.32649 20.7349 4.06081 20.5685V20.5685C5.5392 20.4267 5.85865 18.4097 4.49646 17.818V17.818C2.89844 17.1238 3.68033 14.7174 5.38119 15.095V15.095C6.83105 15.417 7.75813 13.5975 6.64547 12.6138V12.6138C5.34019 11.4597 6.82742 9.41271 8.32833 10.2975V10.2975C9.60774 11.0517 11.0517 9.60774 10.2975 8.32833V8.32833C9.41271 6.82741 11.4597 5.34019 12.6138 6.64547V6.64547C13.5975 7.75813 15.417 6.83105 15.095 5.38119V5.38119C14.7174 3.68033 17.1238 2.89844 17.818 4.49646V4.49646C18.4097 5.85865 20.4267 5.5392 20.5685 4.06081V4.06081Z" fill="#017C3A"/>
<path d="M22 3.61243L23.0987 15.063L27.6821 4.51238L25.1886 15.7421L32.8079 7.12414L26.9663 17.0337L36.8759 11.1921L28.2579 18.8114L39.4876 16.3179L28.937 20.9013L40.3876 22L28.937 23.0987L39.4876 27.6821L28.2579 25.1886L36.8759 32.8079L26.9663 26.9663L32.8079 36.8759L25.1886 28.2579L27.6821 39.4876L23.0987 28.937L22 40.3876L20.9013 28.937L16.3179 39.4876L18.8114 28.2579L11.1921 36.8759L17.0337 26.9663L7.12414 32.8079L15.7421 25.1886L4.51238 27.6821L15.063 23.0987L3.61243 22L15.063 20.9013L4.51238 16.3179L15.7421 18.8114L7.12414 11.1921L17.0337 17.0337L11.1921 7.12414L18.8114 15.7421L16.3179 4.51238L20.9013 15.063L22 3.61243Z" fill="#52BE84"/>
<circle cx="21.9999" cy="19.3062" r="15.6938" fill="url(#paint1_linear_24_96)"/>
<ellipse cx="23.6871" cy="9.51375" rx="8.47415" ry="4.73077" transform="rotate(10.5142 23.6871 9.51375)" fill="url(#paint2_linear_24_96)"/>
<path d="M7.8208 29.5483C12.6615 36.4743 25.0411 43.1285 36.1792 29C32.4314 37.9449 17.8468 46.3356 7.8208 29.5483Z" fill="#52BE84"/>
<ellipse cx="10.2941" cy="16.109" rx="3.3186" ry="2.7529" transform="rotate(-52.8796 10.2941 16.109)" fill="url(#paint3_linear_24_96)"/>
<circle cx="22" cy="22" r="13" fill="url(#paint4_linear_24_96)"/>
<circle cx="22" cy="22" r="12.75" stroke="#3EAA71" stroke-opacity="0.2" stroke-width="0.5"/>
<path d="M22.5053 14.12C23.4919 14.12 24.3386 14.2933 25.0453 14.64C25.7519 14.9733 26.2853 15.44 26.6453 16.04C27.0053 16.6267 27.1853 17.2867 27.1853 18.02C27.1853 18.9133 26.9653 19.64 26.5253 20.2C26.0986 20.76 25.6586 21.1333 25.2053 21.32V21.4C25.9119 21.68 26.4586 22.1067 26.8453 22.68C27.2453 23.24 27.4453 23.9667 27.4453 24.86C27.4453 26.1667 27.0053 27.2 26.1253 27.96C25.2586 28.7067 24.0519 29.08 22.5053 29.08C20.9719 29.08 19.7186 28.6867 18.7453 27.9C17.7719 27.1133 17.2853 25.94 17.2853 24.38H20.6053C20.6186 24.9667 20.7853 25.4333 21.1053 25.78C21.4253 26.1133 21.8919 26.28 22.5053 26.28C23.0253 26.28 23.4253 26.1267 23.7053 25.82C23.9986 25.5133 24.1453 25.1067 24.1453 24.6C24.1453 23.9733 23.9453 23.52 23.5453 23.24C23.1453 22.96 22.4919 22.82 21.5853 22.82H20.9453V20.04H21.5853C22.2653 20.04 22.8119 19.9267 23.2253 19.7C23.6519 19.46 23.8653 19.04 23.8653 18.44C23.8653 18.0133 23.7253 17.6733 23.4453 17.42C23.1786 17.1667 22.8186 17.04 22.3653 17.04C21.7919 17.04 21.3986 17.2067 21.1853 17.54C20.9719 17.86 20.8586 18.1867 20.8453 18.52H17.5253C17.5253 17.12 17.9719 16.04 18.8653 15.28C19.7719 14.5067 20.9853 14.12 22.5053 14.12Z" fill="url(#paint5_linear_24_96)"/>
</g>
<defs>
<linearGradient id="paint0_linear_24_96" x1="22" y1="0" x2="22" y2="44" gradientUnits="userSpaceOnUse">
<stop stop-color="#8AF5BC"/>
<stop offset="1" stop-color="#07743A"/>
</linearGradient>
<linearGradient id="paint1_linear_24_96" x1="21.9999" y1="3.61243" x2="21.9999" y2="35" gradientUnits="userSpaceOnUse">
<stop stop-color="white" stop-opacity="0.46"/>
<stop offset="1" stop-color="white" stop-opacity="0"/>
</linearGradient>
<linearGradient id="paint2_linear_24_96" x1="23.6871" y1="4.78297" x2="23.6871" y2="12.2455" gradientUnits="userSpaceOnUse">
<stop stop-color="white" stop-opacity="0.88"/>
<stop offset="1" stop-color="white" stop-opacity="0"/>
</linearGradient>
<linearGradient id="paint3_linear_24_96" x1="10.2941" y1="13.3561" x2="10.2941" y2="17.6986" gradientUnits="userSpaceOnUse">
<stop stop-color="white" stop-opacity="0.88"/>
<stop offset="1" stop-color="white" stop-opacity="0"/>
</linearGradient>
<linearGradient id="paint4_linear_24_96" x1="22" y1="9" x2="22" y2="35" gradientUnits="userSpaceOnUse">
<stop stop-color="white"/>
<stop offset="1" stop-color="#87F2B9"/>
</linearGradient>
<linearGradient id="paint5_linear_24_96" x1="22.4999" y1="7" x2="22.4999" y2="37" gradientUnits="userSpaceOnUse">
<stop stop-color="#8AF5BC"/>
<stop offset="1" stop-color="#07743A"/>
</linearGradient>
<clipPath id="clip0_24_96">
<rect width="44" height="44" fill="white"/>
</clipPath>
</defs>
</svg>
