<svg width="44" height="44" viewBox="0 0 44 44" fill="none" xmlns="http://www.w3.org/2000/svg">
<g clip-path="url(#clip0_24_250)">
<circle cx="22" cy="22" r="22" fill="url(#paint0_linear_24_250)"/>
<path d="M20.5685 4.06081C20.7349 2.32649 23.2651 2.32649 23.4316 4.06081V4.06081C23.5734 5.5392 25.5903 5.85865 26.1821 4.49646V4.49646C26.8763 2.89844 29.2827 3.68033 28.905 5.38119V5.38119C28.5831 6.83105 30.4026 7.75813 31.3863 6.64547V6.64547C32.5403 5.34019 34.5873 6.82742 33.7026 8.32833V8.32833C32.9484 9.60774 34.3923 11.0517 35.6717 10.2975V10.2975C37.1726 9.41272 38.6599 11.4597 37.3546 12.6138V12.6138C36.2419 13.5975 37.169 15.417 38.6189 15.095V15.095C40.3197 14.7174 41.1016 17.1238 39.5036 17.818V17.818C38.1414 18.4097 38.4609 20.4267 39.9392 20.5685V20.5685C41.6736 20.7349 41.6736 23.2651 39.9392 23.4316V23.4316C38.4609 23.5734 38.1414 25.5903 39.5036 26.1821V26.1821C41.1016 26.8763 40.3197 29.2827 38.6189 28.905V28.905C37.169 28.5831 36.2419 30.4026 37.3546 31.3863V31.3863C38.6599 32.5403 37.1726 34.5873 35.6717 33.7026V33.7026C34.3923 32.9484 32.9484 34.3923 33.7026 35.6717V35.6717C34.5873 37.1726 32.5403 38.6599 31.3863 37.3546V37.3546C30.4026 36.2419 28.5831 37.169 28.905 38.6189V38.6189C29.2827 40.3197 26.8763 41.1016 26.1821 39.5036V39.5036C25.5903 38.1414 23.5734 38.4609 23.4316 39.9392V39.9392C23.2651 41.6736 20.7349 41.6736 20.5685 39.9392V39.9392C20.4267 38.4609 18.4097 38.1414 17.818 39.5036V39.5036C17.1238 41.1016 14.7174 40.3197 15.095 38.6189V38.6189C15.417 37.169 13.5975 36.2419 12.6138 37.3546V37.3546C11.4597 38.6599 9.41272 37.1726 10.2975 35.6717V35.6717C11.0517 34.3923 9.60774 32.9484 8.32833 33.7026V33.7026C6.82742 34.5873 5.34019 32.5403 6.64547 31.3863V31.3863C7.75813 30.4026 6.83105 28.5831 5.38119 28.905V28.905C3.68033 29.2827 2.89844 26.8763 4.49646 26.1821V26.1821C5.85865 25.5903 5.5392 23.5734 4.06081 23.4316V23.4316C2.32649 23.2651 2.32649 20.7349 4.06081 20.5685V20.5685C5.5392 20.4267 5.85865 18.4097 4.49646 17.818V17.818C2.89844 17.1238 3.68033 14.7174 5.38119 15.095V15.095C6.83105 15.417 7.75813 13.5975 6.64547 12.6138V12.6138C5.34019 11.4597 6.82742 9.41271 8.32833 10.2975V10.2975C9.60774 11.0517 11.0517 9.60774 10.2975 8.32833V8.32833C9.41271 6.82741 11.4597 5.34019 12.6138 6.64547V6.64547C13.5975 7.75813 15.417 6.83105 15.095 5.38119V5.38119C14.7174 3.68033 17.1238 2.89844 17.818 4.49646V4.49646C18.4097 5.85865 20.4267 5.5392 20.5685 4.06081V4.06081Z" fill="#7C0101"/>
<path d="M22 3.61243L23.0987 15.063L27.6821 4.51238L25.1886 15.7421L32.8079 7.12414L26.9663 17.0337L36.8759 11.1921L28.2579 18.8114L39.4876 16.3179L28.937 20.9013L40.3876 22L28.937 23.0987L39.4876 27.6821L28.2579 25.1886L36.8759 32.8079L26.9663 26.9663L32.8079 36.8759L25.1886 28.2579L27.6821 39.4876L23.0987 28.937L22 40.3876L20.9013 28.937L16.3179 39.4876L18.8114 28.2579L11.1921 36.8759L17.0337 26.9663L7.12414 32.8079L15.7421 25.1886L4.51238 27.6821L15.063 23.0987L3.61243 22L15.063 20.9013L4.51238 16.3179L15.7421 18.8114L7.12414 11.1921L17.0337 17.0337L11.1921 7.12414L18.8114 15.7421L16.3179 4.51238L20.9013 15.063L22 3.61243Z" fill="#BE5252"/>
<circle cx="21.9999" cy="19.3062" r="15.6938" fill="url(#paint1_linear_24_250)"/>
<ellipse cx="23.6871" cy="9.51375" rx="8.47415" ry="4.73077" transform="rotate(10.5142 23.6871 9.51375)" fill="url(#paint2_linear_24_250)"/>
<path d="M7.8208 29.5483C12.6615 36.4743 25.0411 43.1285 36.1792 29C32.4314 37.9449 17.8468 46.3356 7.8208 29.5483Z" fill="#BE5252"/>
<ellipse cx="10.2941" cy="16.109" rx="3.3186" ry="2.7529" transform="rotate(-52.8796 10.2941 16.109)" fill="url(#paint3_linear_24_250)"/>
<circle cx="22" cy="22" r="13" fill="url(#paint4_linear_24_250)"/>
<circle cx="22" cy="22" r="12.75" stroke="#AA3E3E" stroke-opacity="0.2" stroke-width="0.5"/>
<path d="M17.4356 17.92C17.4356 17.2267 17.6222 16.5733 17.9956 15.96C18.3822 15.3467 18.9556 14.8533 19.7156 14.48C20.4756 14.1067 21.4022 13.92 22.4956 13.92C23.5889 13.92 24.5156 14.1133 25.2756 14.5C26.0356 14.8733 26.6022 15.3667 26.9756 15.98C27.3489 16.5933 27.5356 17.2467 27.5356 17.94C27.5356 18.6467 27.3689 19.2667 27.0356 19.8C26.7022 20.32 26.2489 20.74 25.6756 21.06C26.3956 21.4067 26.9422 21.8867 27.3156 22.5C27.7022 23.1133 27.8956 23.84 27.8956 24.68C27.8956 25.6133 27.6556 26.4267 27.1756 27.12C26.7089 27.8133 26.0622 28.3467 25.2356 28.72C24.4089 29.0933 23.4956 29.28 22.4956 29.28C21.4956 29.28 20.5822 29.0933 19.7556 28.72C18.9422 28.3467 18.2956 27.8133 17.8156 27.12C17.3356 26.4267 17.0956 25.6133 17.0956 24.68C17.0956 23.84 17.2889 23.1133 17.6756 22.5C18.0622 21.8867 18.6089 21.4067 19.3156 21.06C18.7156 20.7267 18.2489 20.3133 17.9156 19.82C17.5956 19.3133 17.4356 18.68 17.4356 17.92ZM20.7756 18.46C20.7756 18.9667 20.9422 19.38 21.2756 19.7C21.6089 20.0067 22.0156 20.16 22.4956 20.16C22.9756 20.16 23.3822 20 23.7156 19.68C24.0489 19.36 24.2156 18.9467 24.2156 18.44C24.2156 17.9067 24.0556 17.4867 23.7356 17.18C23.4289 16.8733 23.0156 16.72 22.4956 16.72C22.0022 16.72 21.5889 16.8733 21.2556 17.18C20.9356 17.4867 20.7756 17.9133 20.7756 18.46ZM20.3956 24.5C20.3956 25.0733 20.5756 25.5467 20.9356 25.92C21.3089 26.2933 21.8222 26.48 22.4756 26.48C23.1156 26.48 23.6022 26.2933 23.9356 25.92C24.2822 25.5333 24.4556 25.0533 24.4556 24.48C24.4556 23.9067 24.2822 23.44 23.9356 23.08C23.6022 22.72 23.1156 22.54 22.4756 22.54C21.8489 22.54 21.3422 22.7133 20.9556 23.06C20.5822 23.4067 20.3956 23.8867 20.3956 24.5Z" fill="#FF0000"/>
</g>
<defs>
<linearGradient id="paint0_linear_24_250" x1="22" y1="0" x2="22" y2="44" gradientUnits="userSpaceOnUse">
<stop stop-color="#FF0000"/>
<stop offset="1" stop-color="#830000"/>
</linearGradient>
<linearGradient id="paint1_linear_24_250" x1="21.9999" y1="3.61243" x2="21.9999" y2="35" gradientUnits="userSpaceOnUse">
<stop stop-color="white" stop-opacity="0.46"/>
<stop offset="1" stop-color="white" stop-opacity="0"/>
</linearGradient>
<linearGradient id="paint2_linear_24_250" x1="23.6871" y1="4.78297" x2="23.6871" y2="12.2455" gradientUnits="userSpaceOnUse">
<stop stop-color="white" stop-opacity="0.88"/>
<stop offset="1" stop-color="white" stop-opacity="0"/>
</linearGradient>
<linearGradient id="paint3_linear_24_250" x1="10.2941" y1="13.3561" x2="10.2941" y2="17.6986" gradientUnits="userSpaceOnUse">
<stop stop-color="white" stop-opacity="0.88"/>
<stop offset="1" stop-color="white" stop-opacity="0"/>
</linearGradient>
<linearGradient id="paint4_linear_24_250" x1="22" y1="9" x2="22" y2="35" gradientUnits="userSpaceOnUse">
<stop stop-color="white"/>
<stop offset="1" stop-color="#F28787"/>
</linearGradient>
<clipPath id="clip0_24_250">
<rect width="44" height="44" fill="white"/>
</clipPath>
</defs>
</svg>
